<svg xmlns="http://www.w3.org/2000/svg" viewBox="0 0 54.75 51.75"><defs><style>.cls-2{fill:#bbb}.cls-5{fill:#999}</style></defs><g id="2" data-name="2"><g id="pag-restart"><rect y="15.75" width="33" height="36" rx="1.5" ry="1.5" fill="#eee" id="Rectangle_4_copy" data-name="Rectangle 4 copy"/><g id="_1_3_5" data-name="135"><path class="cls-2" d="M10.9 26.39h-1v-6l-1 .61v-1l1-.67h1zM9.43 36.46L9 36.24a1.8 1.8 0 0 1-.73-.63 2.27 2.27 0 0 1-.35-1h1a1.07 1.07 0 0 0 .19.5.88.88 0 0 0 .38.29 1.43 1.43 0 0 0 .54.1 1.06 1.06 0 0 0 .77-.26 1 1 0 0 0 .27-.74v-.21a1.2 1.2 0 0 0-.26-.82.93.93 0 0 0-.73-.29h-.5v-.95h.5a.83.83 0 0 0 .64-.25 1 1 0 0 0 .23-.7V31a.85.85 0 0 0-.24-.65 1 1 0 0 0-.69-.23 1 1 0 0 0-.45.1.87.87 0 0 0-.34.29 1.34 1.34 0 0 0-.2.5H8a2.58 2.58 0 0 1 .37-1 1.8 1.8 0 0 1 .69-.63 2 2 0 0 1 1-.21 2 2 0 0 1 1.42.48 1.8 1.8 0 0 1 .5 1.36v.12a1.53 1.53 0 0 1-.29.93 1.63 1.63 0 0 1-.82.58 1.44 1.44 0 0 1 .9.57 1.89 1.89 0 0 1 .32 1.13v.12a2.18 2.18 0 0 1-.24 1.06 1.58 1.58 0 0 1-.7.67 2.43 2.43 0 0 1-1.1.23zM9.22 46.25a1.72 1.72 0 0 1-.68-.61 2.42 2.42 0 0 1-.35-1h1a.92.92 0 0 0 .31.61 1 1 0 0 0 .67.22.9.9 0 0 0 .74-.32 1.39 1.39 0 0 0 .26-.9v-.6a1.38 1.38 0 0 0-.26-.9.9.9 0 0 0-.74-.32.94.94 0 0 0-.5.15 1.39 1.39 0 0 0-.42.41h-.91v-3.7H12v.95H9.34v1.6a1.4 1.4 0 0 1 .42-.23 1.37 1.37 0 0 1 .47-.08 2.06 2.06 0 0 1 1.05.25 1.62 1.62 0 0 1 .66.74 2.78 2.78 0 0 1 .23 1.18v.6a2.7 2.7 0 0 1-.23 1.18 1.66 1.66 0 0 1-.68.74 2.14 2.14 0 0 1-1.08.26 2.09 2.09 0 0 1-.96-.23z"/></g><g id="Rectangle_4" data-name="Rectangle 4"><rect x="18" y=".75" width="36" height="41" rx="1.5" ry="1.5" fill="#fff"/><rect x="18" y=".75" width="36" height="41" rx="1.5" ry="1.5" fill="none" stroke="#999" stroke-width="1.5"/></g><g id="_1_3_5-2" data-name="135"><path class="cls-5" d="M29.9 12.39h-1v-6l-1 .61V6l1-.67h1zM28.43 24.46l-.43-.22a1.8 1.8 0 0 1-.73-.63 2.27 2.27 0 0 1-.35-1h1a1.07 1.07 0 0 0 .19.5.88.88 0 0 0 .38.29 1.43 1.43 0 0 0 .54.1 1.06 1.06 0 0 0 .77-.26 1 1 0 0 0 .27-.74v-.21a1.2 1.2 0 0 0-.26-.82.93.93 0 0 0-.73-.29h-.5v-.95h.5a.83.83 0 0 0 .64-.25 1 1 0 0 0 .23-.7V19a.85.85 0 0 0-.24-.65 1 1 0 0 0-.69-.23 1 1 0 0 0-.45.1.87.87 0 0 0-.34.29 1.34 1.34 0 0 0-.2.5H27a2.58 2.58 0 0 1 .37-1 1.8 1.8 0 0 1 .69-.63 2 2 0 0 1 1-.21 2 2 0 0 1 1.42.48 1.8 1.8 0 0 1 .5 1.36v.12a1.53 1.53 0 0 1-.29.93 1.63 1.63 0 0 1-.82.58 1.44 1.44 0 0 1 .9.57 1.89 1.89 0 0 1 .32 1.13v.12a2.18 2.18 0 0 1-.24 1.06 1.58 1.58 0 0 1-.7.67 2.43 2.43 0 0 1-1.1.23zM28.22 36.25a1.72 1.72 0 0 1-.68-.61 2.42 2.42 0 0 1-.35-1h1a.92.92 0 0 0 .31.61 1 1 0 0 0 .67.22.9.9 0 0 0 .74-.32 1.39 1.39 0 0 0 .26-.9v-.6a1.38 1.38 0 0 0-.26-.9.9.9 0 0 0-.74-.32.94.94 0 0 0-.5.15 1.39 1.39 0 0 0-.42.41h-.91v-3.7H31v.95h-2.66v1.6a1.4 1.4 0 0 1 .42-.23 1.37 1.37 0 0 1 .47-.08 2.06 2.06 0 0 1 1.05.25 1.62 1.62 0 0 1 .66.74 2.78 2.78 0 0 1 .23 1.18v.6a2.7 2.7 0 0 1-.23 1.18 1.66 1.66 0 0 1-.68.74 2.14 2.14 0 0 1-1.08.26 2.09 2.09 0 0 1-.96-.23z"/></g><g id="_2_4_6" data-name="246"><path class="cls-5" d="M40.94 11.52l2.48-3.3a2.46 2.46 0 0 0 .33-.59 1.57 1.57 0 0 0 .12-.57.86.86 0 0 0-.25-.66 1 1 0 0 0-.71-.23 1 1 0 0 0-.7.26 1.16 1.16 0 0 0-.33.73h-1a2.65 2.65 0 0 1 .36-1 1.82 1.82 0 0 1 .7-.66 2.09 2.09 0 0 1 1-.23 2.47 2.47 0 0 1 1.06.16 1.53 1.53 0 0 1 .68.63 2 2 0 0 1 .23 1 2.21 2.21 0 0 1-.16.79 3.37 3.37 0 0 1-.43.79l-2.06 2.79h2.69v.95h-4zM40.45 22.43l2.38-5.14h1l-2.32 5.08H45v.92h-4.55zm3.06-2.22h1v4.18h-1zM41.81 36.21a1.63 1.63 0 0 1-.68-.73 2.65 2.65 0 0 1-.23-1.16 4 4 0 0 1 .09-.83 4.82 4.82 0 0 1 .27-.85l.06-.14.07-.14 1.54-3.06H44l-1.8 3.53v-.18a.86.86 0 0 1 .36-.36 1.13 1.13 0 0 1 .55-.13 1.74 1.74 0 0 1 .95.25 1.56 1.56 0 0 1 .6.73 2.89 2.89 0 0 1 .21 1.15 2.71 2.71 0 0 1-.23 1.17 1.64 1.64 0 0 1-.68.74 2.39 2.39 0 0 1-2.14 0zm1.8-1a1.23 1.23 0 0 0 .26-.83 1.41 1.41 0 0 0-.27-.92.94.94 0 0 0-.77-.32.81.81 0 0 0-.69.33 1.52 1.52 0 0 0-.24.92 1.22 1.22 0 0 0 .26.83 1.05 1.05 0 0 0 1.46 0z"/></g></g></g></svg>