<svg xmlns="http://www.w3.org/2000/svg" viewBox="0 0 54.75 51.75"><defs><style>.cls-2{fill:#bbb}.cls-5{fill:#999}</style></defs><g id="1" data-name="1"><g id="pag-incl"><rect y="15.75" width="33" height="36" rx="1.5" ry="1.5" fill="#eee" id="Rectangle_4_copy" data-name="Rectangle 4 copy"/><g id="_1_3_5" data-name="135"><path class="cls-2" d="M10.9 26.39h-1v-6l-1 .61v-1l1-.67h1zM9.43 36.46L9 36.24a1.8 1.8 0 0 1-.73-.63 2.27 2.27 0 0 1-.35-1h1a1.07 1.07 0 0 0 .19.5.88.88 0 0 0 .38.29 1.43 1.43 0 0 0 .54.1 1.06 1.06 0 0 0 .77-.26 1 1 0 0 0 .27-.74v-.21a1.2 1.2 0 0 0-.26-.82.93.93 0 0 0-.73-.29h-.5v-.95h.5a.83.83 0 0 0 .64-.25 1 1 0 0 0 .23-.7V31a.85.85 0 0 0-.24-.65 1 1 0 0 0-.69-.23 1 1 0 0 0-.45.1.87.87 0 0 0-.34.29 1.34 1.34 0 0 0-.2.5H8a2.58 2.58 0 0 1 .37-1 1.8 1.8 0 0 1 .69-.63 2 2 0 0 1 1-.21 2 2 0 0 1 1.42.48 1.8 1.8 0 0 1 .5 1.36v.12a1.53 1.53 0 0 1-.29.93 1.63 1.63 0 0 1-.82.58 1.44 1.44 0 0 1 .9.57 1.89 1.89 0 0 1 .32 1.13v.12a2.18 2.18 0 0 1-.24 1.06 1.58 1.58 0 0 1-.7.67 2.43 2.43 0 0 1-1.1.23zM9.22 46.25a1.72 1.72 0 0 1-.68-.61 2.42 2.42 0 0 1-.35-1h1a.92.92 0 0 0 .31.61 1 1 0 0 0 .67.22.9.9 0 0 0 .74-.32 1.39 1.39 0 0 0 .26-.9v-.6a1.38 1.38 0 0 0-.26-.9.9.9 0 0 0-.74-.32.94.94 0 0 0-.5.15 1.39 1.39 0 0 0-.42.41h-.91v-3.7H12v.95H9.34v1.6a1.4 1.4 0 0 1 .42-.23 1.37 1.37 0 0 1 .47-.08 2.06 2.06 0 0 1 1.05.25 1.62 1.62 0 0 1 .66.74 2.78 2.78 0 0 1 .23 1.18v.6a2.7 2.7 0 0 1-.23 1.18 1.66 1.66 0 0 1-.68.74 2.14 2.14 0 0 1-1.08.26 2.09 2.09 0 0 1-.96-.23z"/></g><g id="_4_5_6" data-name="456"><path class="cls-2" d="M19.45 24.43l2.38-5.14h1l-2.32 5.08H24v.92h-4.55zm3.06-2.22h1v4.18h-1zM21.07 36.25a1.72 1.72 0 0 1-.68-.61 2.42 2.42 0 0 1-.35-1h1a.92.92 0 0 0 .31.61 1 1 0 0 0 .67.22.9.9 0 0 0 .74-.32 1.39 1.39 0 0 0 .26-.9v-.6a1.38 1.38 0 0 0-.26-.9.9.9 0 0 0-.74-.32.94.94 0 0 0-.5.15 1.39 1.39 0 0 0-.42.41h-.9v-3.7h3.62v.95H21.2v1.6a1.4 1.4 0 0 1 .42-.23 1.37 1.37 0 0 1 .47-.08 2.06 2.06 0 0 1 1.05.25 1.62 1.62 0 0 1 .66.74 2.78 2.78 0 0 1 .2 1.17v.6a2.7 2.7 0 0 1-.23 1.18 1.66 1.66 0 0 1-.68.74 2.14 2.14 0 0 1-1.08.26 2.09 2.09 0 0 1-.94-.22zM20.81 46.21a1.63 1.63 0 0 1-.68-.73 2.65 2.65 0 0 1-.23-1.16 4 4 0 0 1 .09-.83 4.82 4.82 0 0 1 .27-.85l.06-.14.07-.14 1.54-3.06H23l-1.8 3.53v-.18a.86.86 0 0 1 .36-.36 1.13 1.13 0 0 1 .55-.13 1.74 1.74 0 0 1 .95.25 1.56 1.56 0 0 1 .6.73 2.89 2.89 0 0 1 .21 1.15 2.71 2.71 0 0 1-.23 1.17 1.64 1.64 0 0 1-.68.74 2.39 2.39 0 0 1-2.14 0zm1.8-1a1.23 1.23 0 0 0 .26-.83 1.41 1.41 0 0 0-.27-.92.94.94 0 0 0-.77-.32.81.81 0 0 0-.69.33 1.52 1.52 0 0 0-.24.92 1.22 1.22 0 0 0 .26.83 1.05 1.05 0 0 0 1.46 0z"/></g><g id="Rectangle_4" data-name="Rectangle 4"><rect x="18" y=".75" width="36" height="41" rx="1.5" ry="1.5" fill="#fff"/><rect x="18" y=".75" width="36" height="41" rx="1.5" ry="1.5" fill="none" stroke="#999" stroke-width="1.5"/></g><path class="cls-5" d="M30.36 5.17l-1.84 6.21h-1.06l1.84-6.15h-1.81v1h-1v-2h3.86z" id="_7" data-name="7"/><path class="cls-5" d="M41.64 11.21a1.78 1.78 0 0 1-.75-.69 2 2 0 0 1-.27-1v-.15a2 2 0 0 1 .27-1 1.78 1.78 0 0 1 .71-.71 1.55 1.55 0 0 1-.6-.59 1.6 1.6 0 0 1-.23-.82v-.17a1.89 1.89 0 0 1 .25-1 1.69 1.69 0 0 1 .7-.65 2.51 2.51 0 0 1 2.11 0 1.69 1.69 0 0 1 .7.65 1.89 1.89 0 0 1 .25 1v.17a1.57 1.57 0 0 1-.23.83 1.54 1.54 0 0 1-.61.59 1.84 1.84 0 0 1 .72.71 2 2 0 0 1 .27 1v.12a2 2 0 0 1-.27 1 1.78 1.78 0 0 1-.75.69 2.75 2.75 0 0 1-2.27 0zm1.74-.85a1 1 0 0 0 .41-.38 1.11 1.11 0 0 0 .14-.57v-.07a1.12 1.12 0 0 0-.14-.57 1 1 0 0 0-.41-.38 1.43 1.43 0 0 0-1.22 0 1 1 0 0 0-.41.39 1.13 1.13 0 0 0-.14.58v.07a1.09 1.09 0 0 0 .14.57 1 1 0 0 0 .41.38 1.33 1.33 0 0 0 .61.13 1.31 1.31 0 0 0 .61-.15zm-.08-3.2a.89.89 0 0 0 .36-.37 1.16 1.16 0 0 0 .13-.55v-.06a1.07 1.07 0 0 0-.13-.53.88.88 0 0 0-.36-.35 1.18 1.18 0 0 0-1.05 0 .88.88 0 0 0-.36.35 1.08 1.08 0 0 0-.13.53v.07a1.14 1.14 0 0 0 .13.54.9.9 0 0 0 .36.37 1.14 1.14 0 0 0 1.05 0z" id="_8" data-name="8"/><path class="cls-5" d="M29.2 19.86V20a.73.73 0 0 1-.37.33 1.49 1.49 0 0 1-.58.1 1.57 1.57 0 0 1-.89-.26 1.69 1.69 0 0 1-.6-.73 2.63 2.63 0 0 1-.21-1.09 2.72 2.72 0 0 1 .23-1.18 1.64 1.64 0 0 1 .68-.74 2.13 2.13 0 0 1 1.07-.25 2.09 2.09 0 0 1 1.07.26 1.66 1.66 0 0 1 .68.75 2.77 2.77 0 0 1 .23 1.19 3.71 3.71 0 0 1-.1.81 5 5 0 0 1-.28.86l-.06.13-.06.13-1.51 3h-1.08zm0-.62a1.39 1.39 0 0 0 .26-.89 1.32 1.32 0 0 0-.26-.87 1 1 0 0 0-1.46 0 1.33 1.33 0 0 0-.26.87 1.38 1.38 0 0 0 .26.89 1 1 0 0 0 1.46 0z" id="_9" data-name="9"/><g id="_10" data-name="10"><path class="cls-5" d="M40.4 23.39h-1v-6l-1 .62V17l1-.67h1zM42.2 22.93a2 2 0 0 1-.52-1.48v-3.24a2 2 0 1 1 4.05 0v3.23a1.83 1.83 0 0 1-2 2 2 2 0 0 1-1.53-.51zm2.29-.69a1.14 1.14 0 0 0 .25-.79v-3.24a1.15 1.15 0 0 0-.25-.79 1.24 1.24 0 0 0-1.56 0 1.15 1.15 0 0 0-.25.79v3.23a1.14 1.14 0 0 0 .25.79 1.24 1.24 0 0 0 1.56 0z"/></g><g id="_11" data-name="11"><path class="cls-5" d="M27.4 36.39h-1v-6l-1 .62V30l1-.67h1zM30.4 36.39h-1v-6l-1 .62V30l1-.67h1z"/></g><g id="_12" data-name="12"><path class="cls-5" d="M40.4 36.39h-1v-6l-1 .62V30l1-.67h1zM41.58 35.52l2.48-3.3a2.46 2.46 0 0 0 .33-.59 1.57 1.57 0 0 0 .12-.57.86.86 0 0 0-.25-.66 1 1 0 0 0-.71-.23 1 1 0 0 0-.7.26 1.16 1.16 0 0 0-.33.73h-1a2.65 2.65 0 0 1 .36-1 1.82 1.82 0 0 1 .7-.66 2.09 2.09 0 0 1 1-.23 2.47 2.47 0 0 1 1.08.22 1.53 1.53 0 0 1 .68.63 2 2 0 0 1 .23 1 2.21 2.21 0 0 1-.16.79 3.37 3.37 0 0 1-.43.79l-2.08 2.74h2.69v.95h-4z"/></g></g></g></svg>