<svg xmlns="http://www.w3.org/2000/svg" viewBox="0 0 54 53"><defs><style>.cls-1{fill:#fff}.cls-2{fill:#eee}.cls-3{fill:#999}.cls-4{fill:#bbb}</style></defs><g id="4" data-name="4"><g id="pad-ignore"><g id="Group_1_copy" data-name="Group 1 copy"><rect class="cls-1" y="14" width="35" height="37" rx="1.5" ry="1.5" id="Rectangle_7_copy_6" data-name="Rectangle 7 copy 6"/><rect class="cls-2" y="10" width="16" height="13" rx="1.5" ry="1.5" id="Rectangle_7" data-name="Rectangle 7"/><rect class="cls-2" x="19" y="10" width="16" height="13" rx="1.5" ry="1.5" id="Rectangle_7_copy" data-name="Rectangle 7 copy"/><rect class="cls-2" y="25" width="16" height="13" rx="1.5" ry="1.5" id="Rectangle_7_copy_2" data-name="Rectangle 7 copy 2"/><rect class="cls-2" x="19" y="25" width="16" height="13" rx="1.5" ry="1.5" id="Rectangle_7_copy_3" data-name="Rectangle 7 copy 3"/><rect class="cls-2" y="40" width="16" height="13" rx="1.5" ry="1.5" id="Rectangle_7_copy_4" data-name="Rectangle 7 copy 4"/><rect class="cls-2" x="19" y="40" width="16" height="13" rx="1.5" ry="1.5" id="Rectangle_7_copy_5" data-name="Rectangle 7 copy 5"/></g><g id="Group_1" data-name="Group 1"><rect class="cls-1" x="19" y="1" width="35" height="42" rx="1.5" ry="1.5" id="Rectangle_7_copy_6-2" data-name="Rectangle 7 copy 6"/><g id="Rectangle_7-2" data-name="Rectangle 7"><rect class="cls-3" x="19.75" y=".75" width="14.5" height="11.5" rx=".75" ry=".75"/><path class="cls-3" d="M33.5 1.5v10h-13v-10h13m0-1.5h-13A1.5 1.5 0 0 0 19 1.5v10a1.5 1.5 0 0 0 1.5 1.5h13a1.5 1.5 0 0 0 1.5-1.5v-10A1.5 1.5 0 0 0 33.5 0z"/></g><g id="Rectangle_7_copy-2" data-name="Rectangle 7 copy"><rect class="cls-3" x="38.75" y=".75" width="14.5" height="11.5" rx=".75" ry=".75"/><path class="cls-3" d="M52.5 1.5v10h-13v-10h13m0-1.5h-13A1.5 1.5 0 0 0 38 1.5v10a1.5 1.5 0 0 0 1.5 1.5h13a1.5 1.5 0 0 0 1.5-1.5v-10A1.5 1.5 0 0 0 52.5 0z"/></g><g id="Rectangle_7_copy_2-2" data-name="Rectangle 7 copy 2"><rect class="cls-3" x="19.75" y="15.75" width="14.5" height="11.5" rx=".75" ry=".75"/><path class="cls-3" d="M33.5 16.5v10h-13v-10h13m0-1.5h-13a1.5 1.5 0 0 0-1.5 1.5v10a1.5 1.5 0 0 0 1.5 1.5h13a1.5 1.5 0 0 0 1.5-1.5v-10a1.5 1.5 0 0 0-1.5-1.5z"/></g><g id="Rectangle_7_copy_3-2" data-name="Rectangle 7 copy 3"><rect class="cls-3" x="38.75" y="15.75" width="14.5" height="11.5" rx=".75" ry=".75"/><path class="cls-3" d="M52.5 16.5v10h-13v-10h13m0-1.5h-13a1.5 1.5 0 0 0-1.5 1.5v10a1.5 1.5 0 0 0 1.5 1.5h13a1.5 1.5 0 0 0 1.5-1.5v-10a1.5 1.5 0 0 0-1.5-1.5z"/></g><g id="Rectangle_7_copy_4-2" data-name="Rectangle 7 copy 4"><rect class="cls-3" x="19.75" y="30.75" width="14.5" height="11.5" rx=".75" ry=".75"/><path class="cls-3" d="M33.5 31.5v10h-13v-10h13m0-1.5h-13a1.5 1.5 0 0 0-1.5 1.5v10a1.5 1.5 0 0 0 1.5 1.5h13a1.5 1.5 0 0 0 1.5-1.5v-10a1.5 1.5 0 0 0-1.5-1.5z"/></g><path class="cls-3" d="M52.5 31.5v10h-13v-10h13m0-1.5h-13a1.5 1.5 0 0 0-1.5 1.5v10a1.5 1.5 0 0 0 1.5 1.5h13a1.5 1.5 0 0 0 1.5-1.5v-10a1.5 1.5 0 0 0-1.5-1.5z" id="Rectangle_7_copy_5-2" data-name="Rectangle 7 copy 5"/><path class="cls-4" d="M9.06 20.41h-1v-6l-1 .62V14l1-.67h1z" id="_1" data-name="1"/><path class="cls-4" d="M7.59 35.48l-.45-.22a1.8 1.8 0 0 1-.73-.63 2.26 2.26 0 0 1-.35-1h1a1.07 1.07 0 0 0 .19.5.88.88 0 0 0 .38.29 1.41 1.41 0 0 0 .54.1 1.06 1.06 0 0 0 .77-.26 1 1 0 0 0 .27-.74v-.22a1.2 1.2 0 0 0-.21-.82.93.93 0 0 0-.73-.29h-.5v-.95h.5a.83.83 0 0 0 .61-.24 1 1 0 0 0 .23-.7v-.22a.85.85 0 0 0-.24-.65 1 1 0 0 0-.69-.23 1 1 0 0 0-.45.1.85.85 0 0 0-.34.29 1.33 1.33 0 0 0-.2.5h-1a2.58 2.58 0 0 1 .37-1 1.81 1.81 0 0 1 .69-.63 2 2 0 0 1 1-.21 2 2 0 0 1 1.42.48 1.8 1.8 0 0 1 .5 1.36v.12a1.54 1.54 0 0 1-.29.93 1.62 1.62 0 0 1-.88.56 1.45 1.45 0 0 1 .9.57 1.89 1.89 0 0 1 .32 1.13v.12a2.19 2.19 0 0 1-.22 1.06 1.58 1.58 0 0 1-.7.67 2.42 2.42 0 0 1-1.1.23z" id="_3" data-name="3"/><path class="cls-4" d="M7.38 50.27a1.72 1.72 0 0 1-.68-.61 2.42 2.42 0 0 1-.35-1h1a.93.93 0 0 0 .31.61 1 1 0 0 0 .67.22.9.9 0 0 0 .74-.32 1.38 1.38 0 0 0 .26-.9v-.6a1.38 1.38 0 0 0-.26-.9.9.9 0 0 0-.74-.32.94.94 0 0 0-.5.15 1.39 1.39 0 0 0-.42.41H6.5v-3.7h3.62v.95H7.5v1.6a1.42 1.42 0 0 1 .42-.23 1.36 1.36 0 0 1 .47-.08 2.06 2.06 0 0 1 1.05.25 1.62 1.62 0 0 1 .66.74 2.77 2.77 0 0 1 .23 1.18v.6a2.7 2.7 0 0 1-.23 1.18 1.67 1.67 0 0 1-.68.75 2.15 2.15 0 0 1-1.08.26 2.1 2.1 0 0 1-.96-.24z" id="_5" data-name="5"/><path class="cls-1" d="M29 4.2l-1.84 6.21h-1.04L28 4.26h-1.85v1h-1v-2H29z" id="_7" data-name="7"/><path class="cls-1" d="M45.29 10.24a1.78 1.78 0 0 1-.75-.69 2 2 0 0 1-.27-1v-.16a2 2 0 0 1 .27-1 1.78 1.78 0 0 1 .71-.71 1.55 1.55 0 0 1-.6-.59 1.59 1.59 0 0 1-.23-.82V5.1a1.89 1.89 0 0 1 .25-1 1.68 1.68 0 0 1 .7-.65 2.51 2.51 0 0 1 2.11 0 1.68 1.68 0 0 1 .7.65 1.89 1.89 0 0 1 .25 1v.17a1.57 1.57 0 0 1-.23.83 1.55 1.55 0 0 1-.61.59 1.84 1.84 0 0 1 .72.71 2 2 0 0 1 .27 1v.12a2 2 0 0 1-.27 1 1.78 1.78 0 0 1-.75.69 2.75 2.75 0 0 1-2.27 0zM47 9.39a1 1 0 0 0 .45-.39 1.11 1.11 0 0 0 .14-.57v-.06a1.11 1.11 0 0 0-.14-.57 1 1 0 0 0-.45-.39 1.43 1.43 0 0 0-1.22 0 1 1 0 0 0-.41.39 1.13 1.13 0 0 0-.14.58v.07a1.09 1.09 0 0 0 .14.57 1 1 0 0 0 .41.38 1.44 1.44 0 0 0 1.22 0zm0-3.2a.89.89 0 0 0 .36-.37 1.16 1.16 0 0 0 .13-.55V5.2a1.07 1.07 0 0 0-.13-.53.87.87 0 0 0-.36-.35 1.17 1.17 0 0 0-1.05 0 .87.87 0 0 0-.36.35 1.08 1.08 0 0 0-.13.53v.07a1.14 1.14 0 0 0 .13.54.9.9 0 0 0 .36.37 1.14 1.14 0 0 0 1.05 0z" id="_8" data-name="8"/><path class="cls-1" d="M27.86 21.88v.18a.73.73 0 0 1-.37.33 1.48 1.48 0 0 1-.58.11 1.56 1.56 0 0 1-.89-.26 1.69 1.69 0 0 1-.6-.73 2.64 2.64 0 0 1-.21-1.09 2.72 2.72 0 0 1 .23-1.18 1.64 1.64 0 0 1 .68-.74 2.14 2.14 0 0 1 1.07-.25 2.09 2.09 0 0 1 1.07.26 1.66 1.66 0 0 1 .68.75 2.77 2.77 0 0 1 .23 1.19 3.72 3.72 0 0 1-.1.81 5 5 0 0 1-.28.86l-.06.13-.06.13-1.51 3h-1.09zm0-.62a1.39 1.39 0 0 0 .26-.89 1.32 1.32 0 0 0-.26-.87 1 1 0 0 0-1.46 0 1.33 1.33 0 0 0-.26.87 1.38 1.38 0 0 0 .26.89.89.89 0 0 0 .73.31.88.88 0 0 0 .78-.3z" id="_9" data-name="9"/><g id="_10" data-name="10"><path class="cls-1" d="M44.06 25.41h-1v-6l-1 .62V19l1-.67h1zM45.86 25a2 2 0 0 1-.52-1.48v-3.28a2 2 0 0 1 .52-1.49 2.42 2.42 0 0 1 3 0 2 2 0 0 1 .52 1.49v3.23a2 2 0 0 1-.5 1.53 2.41 2.41 0 0 1-3 0zm2.29-.69a1.14 1.14 0 0 0 .25-.79v-3.28a1.14 1.14 0 0 0-.25-.79 1.24 1.24 0 0 0-1.56 0 1.14 1.14 0 0 0-.25.79v3.23a1.14 1.14 0 0 0 .25.79 1.24 1.24 0 0 0 1.56 0z"/></g><g id="_11" data-name="11"><path class="cls-1" d="M26.06 40.41h-1v-6l-1 .62V34l1-.67h1zM29.06 40.41h-1v-6l-1 .62V34l1-.67h1z"/></g></g></g></g></svg>