<svg xmlns="http://www.w3.org/2000/svg" viewBox="0 0 807 807"><defs><style>.cls-1{fill:#666}</style></defs><g id="Слой_2" data-name="Слой 2"><g id="Слой_1-2" data-name="Слой 1"><path class="cls-1" d="M777.11 0H29.89A30 30 0 0 0 0 29.89v298.89a30 30 0 0 0 29.89 29.89h747.22A30 30 0 0 0 807 328.78V29.89A30 30 0 0 0 777.11 0zm-29.89 298.89H59.78V59.78h687.44zM388.56 418.44H29.89A30 30 0 0 0 0 448.33v328.78A30 30 0 0 0 29.89 807h358.67a30 30 0 0 0 29.89-29.89V448.33a30 30 0 0 0-29.89-29.89zm-29.89 328.78H59.78v-269h298.89zM478.22 429.65H807v59.78H478.22zM478.22 575.36H807v59.78H478.22zM478.22 724.81H807v59.78H478.22z"/></g></g></svg>