<svg id="Слой_1" xmlns="http://www.w3.org/2000/svg" viewBox="0 0 881.5 881.5"><style>.st0{fill:#666}</style><path class="st0" d="M440.7 606.9c137.1 0 248.6-136.1 248.6-303.5C689.3 136.1 577.8 0 440.7 0 373 0 309.8 32.4 262.8 91.3c-45.6 56.9-70.7 132.3-70.7 212.2.1 167.3 111.6 303.4 248.6 303.4zM250 303.5c0-65.5 19.9-127.2 56-173.7 36.1-46.3 83.9-71.9 134.6-71.9 105.1 0 190.7 110.2 190.7 245.6 0 135.4-85.5 245.6-190.7 245.6-105 0-190.5-110.2-190.6-245.6z"/><path class="st0" d="M808.6 621.9c-47-47-109.4-72.9-175.7-72.9-16 0-29 13-29 29s13 28.9 29 28.9c105.1 0 190.6 85.5 190.6 190.7 0 14.2-11.7 25.9-25.9 25.9H83.9c-14.3 0-25.9-11.7-26-25.9 0-105.1 85.5-190.7 190.7-190.7 16 0 28.9-13 28.9-28.9s-13-29-28.9-29C111.5 549 0 660.5 0 797.6c.1 46.2 37.7 83.8 83.9 83.8h713.7c46.2-.1 83.8-37.7 83.8-83.9 0-66.2-25.8-128.6-72.8-175.6z"/></svg>