<svg xmlns="http://www.w3.org/2000/svg" viewBox="0 0 980 807.1"><defs><style>.cls-1{fill:#666}</style></defs><g id="Слой_2" data-name="Слой 2"><g id="Слой_1-2" data-name="Слой 1"><path class="cls-1" d="M0 28.81v749.48a28.81 28.81 0 0 0 28.81 28.81h922.38A28.81 28.81 0 0 0 980 778.29V28.81A28.81 28.81 0 0 0 951.19 0H28.81A28.81 28.81 0 0 0 0 28.81zM922.4 749.4H57.6V57.6h864.7v691.8zM691.75 478.05l74.55-74.55-74.53-74.5a28.81 28.81 0 0 1 0-40.75 28.81 28.81 0 0 1 40.76 0l94.87 94.94a28.81 28.81 0 0 1 0 40.74l-94.9 94.87a28.81 28.81 0 0 1-40.77 0 28.81 28.81 0 0 1 .02-40.75z"/><path class="cls-1" d="M288.46 518.78a28.81 28.81 0 0 1-40.77 0l-94.93-94.93a28.81 28.81 0 0 1 0-40.74l94.87-94.94a28.81 28.81 0 0 1 40.76 0 28.81 28.81 0 0 1 0 40.75l-74.53 74.53L288.41 478a28.81 28.81 0 0 1 .05 40.78z"/></g></g></svg>