<svg xmlns="http://www.w3.org/2000/svg" viewBox="0 0 926 677.69"><defs><style>.cls-1{fill:#666}</style></defs><g id="Слой_2" data-name="Слой 2"><g id="Слой_1-2" data-name="Слой 1"><path class="cls-1" d="M211.35.35C103.93 6.3 7.93 100.83.55 208.16-3.92 273.06 19.1 335.09 64.17 381a222.66 222.66 0 0 0 150 66.86l.07.06c.27 3.55.46 8.43.46 15.1 0 27.47-20.89 111.39-34.05 157.84L170.39 657v.11a16.72 16.72 0 0 0 15.77 11.25h123.75a37.34 37.34 0 0 0 31.72-17.65c4.34-7 106.43-174.37 106.43-426.68C448.06 96.3 340.61-6.81 211.35.35zm76.52 593.3H265.3l-.06-.08C276 551.44 289.37 492.77 289.37 463c0-23.64-1.75-42.64-10.33-58.49-7.63-14.12-23.6-30.94-56.35-31.12h-1.63C140.35 371.78 74.68 304.8 74.68 224c0-82.11 66.61-149 148.64-149.35 82.72-.39 150.3 69 150.07 151.69-.52 184.23-61.39 320.5-85.52 367.31zM689.28 9.69c-107.42 6-203.42 100.48-210.8 207.81C474 282.39 497 344.42 542.11 390.32a222.66 222.66 0 0 0 150 66.86l.07.06c.27 3.55.46 8.43.46 15.1 0 27.47-20.89 111.39-34.05 157.84l-10.25 36.16v.11a16.72 16.72 0 0 0 15.77 11.25h123.73a37.34 37.34 0 0 0 31.73-17.7C823.91 653 926 485.68 926 233.37 926 105.63 818.54 2.53 689.28 9.69zM765.81 603h-22.58l-.06-.08c10.73-42.16 24.14-100.83 24.14-130.6 0-23.64-1.75-42.64-10.33-58.49-7.63-14.12-23.6-30.94-56.35-31.12H699c-80.72-1.56-146.39-68.55-146.39-149.31 0-82.11 66.61-149 148.64-149.35 82.72-.39 150.3 69 150.07 151.69-.52 184.17-61.38 320.44-85.51 367.26z"/></g></g></svg>