<svg id="Слой_1" xmlns="http://www.w3.org/2000/svg" viewBox="0 0 32 32"><style>.st0{fill:#666}</style><path class="st0" d="M28.258 8.778H12.635a.5.5 0 0 1-.5-.5v-4a.5.5 0 0 1 .5-.5h15.623a.5.5 0 0 1 .5.5v4a.5.5 0 0 1-.5.5zM28.258 18.156H12.635a.5.5 0 0 1-.5-.5v-4a.5.5 0 0 1 .5-.5h15.623a.5.5 0 0 1 .5.5v4a.5.5 0 0 1-.5.5zM28.258 27.533H12.635a.5.5 0 0 1-.5-.5v-4a.5.5 0 0 1 .5-.5h15.623a.5.5 0 0 1 .5.5v4a.5.5 0 0 1-.5.5zM5.234 9.79c.639 0 1.277.003 1.916.001V2.656H4.107v1.702h1.127V9.79z"/><g><path class="st0" d="M6.624 13.881c0-.581-.251-.873-.754-.873-.284 0-.493.1-.624.299-.13.198-.203.506-.218.925H3.252c.043-.915.32-1.603.83-2.064.51-.461 1.156-.691 1.936-.691.815 0 1.431.206 1.846.616.415.412.623.947.623 1.607 0 .73-.281 1.445-.842 2.144s-1.23 1.29-2.01 1.77h2.969v1.469H3.242V17.72c2.255-1.61 3.382-2.89 3.382-3.84z"/></g><g><path class="st0" d="M7.444 21.69c.376.18.661.429.856.744.195.316.293.672.293 1.07 0 .49-.127.882-.378 1.18a1.64 1.64 0 0 1-.941.565v.052c.97.312 1.457.919 1.457 1.819 0 .433-.099.818-.297 1.155a2.03 2.03 0 0 1-.868.787c-.38.188-.836.282-1.367.282-.866 0-1.551-.212-2.058-.638-.508-.426-.782-1.075-.825-1.947h1.776c.014.332.107.595.277.788.17.19.418.286.745.286.262 0 .47-.078.622-.234a.829.829 0 0 0 .229-.606c0-.617-.447-.926-1.34-.926h-.34v-1.479h.329c.801.014 1.202-.272 1.202-.862 0-.254-.07-.452-.207-.59-.139-.138-.325-.207-.56-.207-.254 0-.457.086-.605.26-.149.174-.235.407-.256.698H3.412c.035-.795.283-1.405.745-1.83.46-.426 1.106-.639 1.936-.639.525 0 .975.09 1.35.271z"/></g></svg>