<svg id="list" xmlns="http://www.w3.org/2000/svg" viewBox="0 0 32 32"><style>.st0{fill:#666}</style><path class="st0" d="M9.053 8.07H3.5a.5.5 0 0 1-.5-.5V3.343a.5.5 0 0 1 .5-.5h5.553a.5.5 0 0 1 .5.5V7.57a.5.5 0 0 1-.5.5zM14.933 5.05c0 1.605-.743 2.928-2.23 3.972L11.45 8.005c.327-.17.659-.437.999-.803.338-.365.56-.717.664-1.056a2.501 2.501 0 0 1-.45.059c-.43 0-.791-.15-1.085-.45-.294-.3-.44-.685-.44-1.154 0-.496.176-.92.528-1.272a1.732 1.732 0 0 1 1.271-.528c.548 0 1.018.202 1.41.606.39.405.586.953.586 1.644z"/><circle class="st0" cx="27.065" cy="26.046" r="1.935"/><path class="st0" d="M22.777 8.07h-5.553a.5.5 0 0 1-.5-.5V3.343a.5.5 0 0 1 .5-.5h5.553a.5.5 0 0 1 .5.5V7.57a.5.5 0 0 1-.5.5zM28.966 5.05c0 1.605-.743 2.928-2.23 3.972l-1.252-1.017c.326-.17.658-.437.998-.803.338-.365.56-.717.665-1.056a2.501 2.501 0 0 1-.45.059c-.43 0-.792-.15-1.086-.45-.293-.3-.44-.685-.44-1.154 0-.496.176-.92.529-1.272a1.732 1.732 0 0 1 1.27-.528c.548 0 1.018.202 1.41.606.39.405.586.953.586 1.644zM9.053 18.097H3.5a.5.5 0 0 1-.5-.5v-4.23a.5.5 0 0 1 .5-.5h5.553a.5.5 0 0 1 .5.5v4.23a.5.5 0 0 1-.5.5zM14.933 15.228c0 1.603-.744 2.927-2.23 3.97l-1.253-1.017c.327-.17.658-.437.998-.802.339-.365.56-.717.665-1.056a2.501 2.501 0 0 1-.45.059c-.43 0-.792-.15-1.085-.45-.294-.3-.44-.685-.44-1.154 0-.496.175-.92.528-1.272a1.732 1.732 0 0 1 1.271-.528c.548 0 1.017.202 1.409.606.39.405.587.953.587 1.644zM22.776 18.097h-5.553a.5.5 0 0 1-.5-.5v-4.23a.5.5 0 0 1 .5-.5h5.553a.5.5 0 0 1 .5.5v4.23a.5.5 0 0 1-.5.5zM28.966 15.228c0 1.603-.743 2.927-2.23 3.97l-1.252-1.017c.326-.17.658-.437.998-.802.338-.365.56-.717.664-1.056a2.501 2.501 0 0 1-.45.059c-.43 0-.791-.15-1.085-.45-.294-.3-.44-.685-.44-1.154 0-.496.176-.92.528-1.272a1.732 1.732 0 0 1 1.271-.528c.548 0 1.018.202 1.41.606.39.405.586.953.586 1.644zM9.053 28.097H3.5a.5.5 0 0 1-.5-.5v-4.23a.5.5 0 0 1 .5-.5h5.553a.5.5 0 0 1 .5.5v4.23a.5.5 0 0 1-.5.5zM14.933 25.228c0 1.603-.744 2.927-2.23 3.97l-1.253-1.017c.327-.17.658-.437.998-.802.339-.365.56-.717.665-1.056a2.501 2.501 0 0 1-.45.059c-.43 0-.792-.15-1.085-.45-.294-.3-.44-.685-.44-1.154 0-.496.175-.92.528-1.272a1.732 1.732 0 0 1 1.271-.528c.548 0 1.017.202 1.409.606.39.405.587.953.587 1.644zM22.776 28.097h-5.553a.5.5 0 0 1-.5-.5v-4.23a.5.5 0 0 1 .5-.5h5.553a.5.5 0 0 1 .5.5v4.23a.5.5 0 0 1-.5.5z"/></svg>