<svg id="Слой_1" xmlns="http://www.w3.org/2000/svg" viewBox="0 0 32 32"><style>.st0{fill:#666}</style><path class="st0" d="M9.807 10.245H3.562a.5.5 0 0 1-.5-.5V3.5a.5.5 0 0 1 .5-.5h6.245a.5.5 0 0 1 .5.5v6.245a.5.5 0 0 1-.5.5zM19.123 10.245h-6.246a.5.5 0 0 1-.5-.5V3.5a.5.5 0 0 1 .5-.5h6.246a.5.5 0 0 1 .5.5v6.245a.5.5 0 0 1-.5.5zM28.438 10.245h-6.245a.5.5 0 0 1-.5-.5V3.5a.5.5 0 0 1 .5-.5h6.245a.5.5 0 0 1 .5.5v6.245a.5.5 0 0 1-.5.5zM9.807 19.623H3.562a.5.5 0 0 1-.5-.5v-6.246a.5.5 0 0 1 .5-.5h6.245a.5.5 0 0 1 .5.5v6.246a.5.5 0 0 1-.5.5zM19.123 19.623h-6.246a.5.5 0 0 1-.5-.5v-6.246a.5.5 0 0 1 .5-.5h6.246a.5.5 0 0 1 .5.5v6.246a.5.5 0 0 1-.5.5zM28.438 19.623h-6.245a.5.5 0 0 1-.5-.5v-6.246a.5.5 0 0 1 .5-.5h6.245a.5.5 0 0 1 .5.5v6.246a.5.5 0 0 1-.5.5z"/><g><path class="st0" d="M9.807 29H3.562a.5.5 0 0 1-.5-.5v-6.245a.5.5 0 0 1 .5-.5h6.245a.5.5 0 0 1 .5.5V28.5a.5.5 0 0 1-.5.5zM19.123 29h-6.246a.5.5 0 0 1-.5-.5v-6.245a.5.5 0 0 1 .5-.5h6.246a.5.5 0 0 1 .5.5V28.5a.5.5 0 0 1-.5.5zM28.438 29h-6.245a.5.5 0 0 1-.5-.5v-6.245a.5.5 0 0 1 .5-.5h6.245a.5.5 0 0 1 .5.5V28.5a.5.5 0 0 1-.5.5z"/></g></svg>