<svg id="Слой_1" xmlns="http://www.w3.org/2000/svg" viewBox="0 0 32 32"><style>.st0{fill:#666}</style><path class="st0" d="M19.14 6.718l-.861-.237a.388.388 0 0 0-.327.035.452.452 0 0 0-.215.271l-5.183 17.94a.416.416 0 0 0 .035.34c.06.106.15.178.27.215l.862.236c.111.038.22.026.327-.034a.452.452 0 0 0 .215-.271l5.183-17.94a.417.417 0 0 0-.035-.34.451.451 0 0 0-.27-.215zM11.373 10.22a.44.44 0 0 0-.139-.32l-.695-.695a.44.44 0 0 0-.32-.139.44.44 0 0 0-.319.14L3.425 15.68a.439.439 0 0 0 0 .64L9.9 22.794a.438.438 0 0 0 .64 0l.694-.695a.44.44 0 0 0 0-.639L5.774 16l5.46-5.46a.439.439 0 0 0 .14-.32zM28.575 15.68L22.1 9.205a.44.44 0 0 0-.32-.139.44.44 0 0 0-.32.139l-.694.695a.44.44 0 0 0 0 .639l5.461 5.46-5.46 5.462a.44.44 0 0 0 0 .64l.694.694a.44.44 0 0 0 .639 0l6.475-6.475a.44.44 0 0 0 0-.64z"/></svg>