<svg id="Слой_1" xmlns="http://www.w3.org/2000/svg" viewBox="0 0 32 32"><style>.st0{fill:#666}</style><path class="st0" d="M6.342 9.623a3 3 0 1 1 0-6 3 3 0 1 1 0 6zM28.158 8.811H12.535a.5.5 0 0 1-.5-.5v-4a.5.5 0 0 1 .5-.5h15.623a.5.5 0 0 1 .5.5v4a.5.5 0 0 1-.5.5zM6.342 19a3 3 0 0 1 0-6 3 3 0 0 1 0 6zM28.158 18.5H12.535a.5.5 0 0 1-.5-.5v-4a.5.5 0 0 1 .5-.5h15.623a.5.5 0 0 1 .5.5v4a.5.5 0 0 1-.5.5z"/><g><path class="st0" d="M6.342 28.377a3 3 0 0 1 0-6 3 3 0 1 1 0 6zM28.158 27.877H12.535a.5.5 0 0 1-.5-.5v-4a.5.5 0 0 1 .5-.5h15.623a.5.5 0 0 1 .5.5v4a.5.5 0 0 1-.5.5z"/></g></svg>