<svg xmlns="http://www.w3.org/2000/svg" viewBox="0 0 838 838"><defs><style>.cls-1{fill:#666}</style></defs><g id="Слой_2" data-name="Слой 2"><g id="Слой_1-2" data-name="Слой 1"><path class="cls-1" d="M289.36 0H96.91A97 97 0 0 0 0 96.91v192.45a97 97 0 0 0 96.91 96.91h192.45a97 97 0 0 0 96.91-96.91V96.91A97 97 0 0 0 289.36 0zm31.44 289.36a31.47 31.47 0 0 1-31.44 31.44H96.91a31.47 31.47 0 0 1-31.44-31.44V96.91a31.47 31.47 0 0 1 31.44-31.44h192.45a31.47 31.47 0 0 1 31.44 31.44zM739.8 0H549.94a98.31 98.31 0 0 0-98.2 98.2v189.86a98.31 98.31 0 0 0 98.2 98.2H739.8a98.31 98.31 0 0 0 98.2-98.2V98.2A98.31 98.31 0 0 0 739.8 0zm32.73 288.06a32.77 32.77 0 0 1-32.73 32.74H549.94a32.77 32.77 0 0 1-32.73-32.73V98.2a32.77 32.77 0 0 1 32.73-32.73H739.8a32.77 32.77 0 0 1 32.73 32.73zM289.36 451.73H96.91A97 97 0 0 0 0 548.64v192.45A97 97 0 0 0 96.91 838h192.45a97 97 0 0 0 96.91-96.91V548.64a97 97 0 0 0-96.91-96.91zm31.44 289.36a31.47 31.47 0 0 1-31.44 31.44H96.91a31.47 31.47 0 0 1-31.44-31.44V548.64a31.47 31.47 0 0 1 31.44-31.44h192.45a31.47 31.47 0 0 1 31.44 31.44zM739.8 451.73H549.94a98.31 98.31 0 0 0-98.2 98.2V739.8a98.31 98.31 0 0 0 98.2 98.2H739.8a98.31 98.31 0 0 0 98.2-98.2V549.94a98.31 98.31 0 0 0-98.2-98.21zm32.73 288.07a32.77 32.77 0 0 1-32.73 32.73H549.94a32.77 32.77 0 0 1-32.74-32.73V549.94a32.77 32.77 0 0 1 32.73-32.73H739.8a32.77 32.77 0 0 1 32.73 32.73z"/></g></g></svg>