<svg id="Слой_1" xmlns="http://www.w3.org/2000/svg" viewBox="0 0 985.1 879.9"><style>.st0{fill:#666}</style><path class="st0" d="M971.5 342.8L512.2 6.4C506.5 2.2 499.6 0 492.6 0c-7 0-13.9 2.2-19.6 6.4L13.6 342.8c-14.8 10.8-18 31.6-7.2 46.4s31.6 18 46.4 7.2l439.8-322 439.8 322c5.7 4.2 12.5 6.4 19.6 6.4 10.6 0 20.5-5.1 26.8-13.6 10.7-14.8 7.5-35.6-7.3-46.4z"/><path class="st0" d="M845.1 387.5c-18.3 0-33.2 14.9-33.2 33.2v392.8H626.5V602.8c0-73.8-60.1-133.9-133.9-133.9S358.7 529 358.7 602.8v210.8H173.2V420.7c0-18.3-14.9-33.2-33.2-33.2-18.3 0-33.2 14.9-33.2 33.2v426c0 18.3 14.9 33.1 33.2 33.2h251.8c17.3 0 31.7-13.3 33-30.5.1-.9.1-1.8.1-2.7v-244c0-37.3 30.2-67.5 67.6-67.5 37.3 0 67.5 30.2 67.5 67.5v244c0 .9 0 1.8.1 2.7 1.4 17.2 15.8 30.5 33 30.5h251.8c18.3 0 33.2-14.9 33.2-33.2v-426c.2-18.3-14.7-33.1-33-33.2z"/></svg>