<svg xmlns="http://www.w3.org/2000/svg" viewBox="0 0 913.8 983"><path d="M261.3 648.6h539.5c62.4-.1 113-50.7 113.1-113.1V306.2c0-.6-.1-1.1-.2-1.7 0-.2-.1-.4-.1-.6 0-.1 0-.2-.1-.4 0-.4-.1-.7-.2-1V301.9l-.2-.4-.1-.3c-.1-.3-.1-.6-.2-.9v-.1l-.1-.1v-.2c-.1-.3-.2-.7-.3-1v-.2c-.1-.3-.2-.7-.3-1-.2-.4-.4-.8-.5-1.1v-.1l-.1-.1c-.2-.4-.4-.8-.7-1.2l-.2-.4-.3-.6c-.1-.2-.3-.5-.4-.7-.1-.1-.1-.2-.2-.3l-.6-.9c-.1-.1-.2-.3-.2-.3-.3-.5-.6-1-1-1.3-.2-.2-.4-.5-.6-.7l-.1-.1c-.2-.3-.4-.7-.7-.9l-.1-.1c-.3-.5-.6-.9-1.1-1.2h-.1l-.5-.5-.5-.5-.2-.2-.2-.1-.1-.1c-.3-.3-.6-.6-1-.8l-.3-.2-.9-.6-.3-.2c-.2-.2-.5-.3-.7-.4-.3-.1-.5-.2-.7-.4l-.2-.2-.3-.2-.6-.3-.6-.3-1.2-.6-.6-.3-.6-.3c-.3-.2-.7-.3-1-.4l-.2-.1c-.7-.4-1.5-.6-2.2-.6h-.2c-.2 0-.3-.1-.5-.1-.6-.2-1.1-.2-1.7-.2-.3-.1-.6-.2-.9-.2l-682-94.3V91.9c0-1 0-2.1-.2-3.1 0-.3-.1-.7-.2-1 0-.3-.1-.5-.1-.8 0-.2-.1-.4-.1-.6v-.3l-.1-.3c-.1-.2-.1-.4-.1-.6 0-.2-.1-.5-.2-.8 0-.3-.1-.5-.2-.8v-.2l-.1-.3-.5-1.6c0-.2-.1-.4-.2-.6v-.1l-.1-.3c-.2-.7-.6-1.4-1-2.1-.1-.3-.2-.5-.4-.8-.2-.5-.5-.9-.9-1.3-.1-.2-.2-.3-.3-.4-.1-.1-.1-.2-.2-.3-.1-.2-.3-.5-.4-.7-.1-.1-.1-.2-.2-.3l-.6-.9c-.1-.1-.2-.3-.2-.3l-.2-.3-.2-.2-.3-.3-.3-.3-.3-.3-.9-.9-.6-.6c-.5-.5-1-1-1.6-1.4-.2-.1-.3-.3-.5-.4l-.1-.1c-.2-.2-.5-.4-.8-.6-.1-.1-.3-.2-.4-.3l-.1-.1-.2-.1c-.6-.4-1.1-.8-1.6-1-.1-.1-.3-.2-.4-.3l-.1-.1-.3-.2c-.4-.2-.9-.4-1.4-.6-.5-.2-.9-.4-1.2-.6h-.2L40.5 2.3C36.9.8 33.1 0 29.2 0 13 0 0 13.2 0 29.3c0 3.7.7 7.4 2.1 10.9 2.9 7.2 8.6 12.9 15.7 15.9l130.4 55V705c.1 55.6 40.6 102.9 95.6 111.6-30.2 53.7-11.1 121.7 42.6 151.9 53.7 30.2 121.7 11.1 151.9-42.6 9.4-16.7 14.3-35.4 14.3-54.6.1-18.7-4.6-37-13.7-53.4h237.4c-9 16.3-13.7 34.7-13.7 53.3.1 61.6 50 111.5 111.7 111.5 61.6-.1 111.5-50 111.5-111.7-.1-61.5-49.9-111.4-111.5-111.5h-513c-30.2 0-54.7-24.5-54.7-54.7v-70.2c16.8 9.3 35.6 14.1 54.7 14zm-54.7-113V244.3l649 89.4v201.7c0 30.3-24.5 54.8-54.7 54.9H261.3c-30.2 0-54.7-24.5-54.7-54.7zm134.6 388.9c-29.5 0-53.3-23.9-53.3-53.3 0-29.5 23.9-53.3 53.3-53.3 29.5 0 53.3 23.9 53.3 53.3s-23.9 53.3-53.3 53.3zm433.4 0c-29.5 0-53.3-23.9-53.3-53.3 0-29.5 23.9-53.3 53.3-53.3 29.5 0 53.3 23.9 53.3 53.3s-23.9 53.3-53.3 53.3z" fill="#666"/></svg>